<mxfile host="app.diagrams.net" modified="2023-11-29T07:15:29.392Z" agent="Mozilla/5.0 (Windows NT 10.0; Win64; x64) AppleWebKit/537.36 (KHTML, like Gecko) Chrome/119.0.0.0 Safari/537.36" etag="LHsD3ffB0I35CedK1HKc" version="22.1.4" type="google">
  <diagram name="Page-1" id="Y322aNBZW6lMh6FeeP6F">
    <mxGraphModel dx="3718" dy="1580" grid="1" gridSize="10" guides="1" tooltips="1" connect="1" arrows="1" fold="1" page="1" pageScale="1" pageWidth="850" pageHeight="1100" math="0" shadow="0">
      <root>
        <mxCell id="0" />
        <mxCell id="1" parent="0" />
        <mxCell id="VBcczgVhfxddpKw8UlaK-140" value="" style="strokeWidth=2;html=1;shape=mxgraph.flowchart.start_2;whiteSpace=wrap;" parent="1" vertex="1">
          <mxGeometry x="345" y="1630" width="40" height="40" as="geometry" />
        </mxCell>
        <mxCell id="VBcczgVhfxddpKw8UlaK-2" value="" style="strokeWidth=2;html=1;shape=mxgraph.flowchart.start_2;whiteSpace=wrap;fillColor=#1F1F1F;" parent="1" vertex="1">
          <mxGeometry x="415" y="40" width="20" height="20" as="geometry" />
        </mxCell>
        <mxCell id="VBcczgVhfxddpKw8UlaK-3" value="" style="endArrow=none;html=1;rounded=0;" parent="1" edge="1">
          <mxGeometry relative="1" as="geometry">
            <mxPoint x="345" y="130" as="sourcePoint" />
            <mxPoint x="505" y="130" as="targetPoint" />
          </mxGeometry>
        </mxCell>
        <mxCell id="VBcczgVhfxddpKw8UlaK-4" value="" style="endArrow=classic;html=1;rounded=0;exitX=0.5;exitY=1;exitDx=0;exitDy=0;exitPerimeter=0;" parent="1" source="VBcczgVhfxddpKw8UlaK-2" edge="1">
          <mxGeometry width="50" height="50" relative="1" as="geometry">
            <mxPoint x="400" y="330" as="sourcePoint" />
            <mxPoint x="430" y="130" as="targetPoint" />
          </mxGeometry>
        </mxCell>
        <mxCell id="VBcczgVhfxddpKw8UlaK-5" value="" style="rounded=0;whiteSpace=wrap;html=1;" parent="1" vertex="1">
          <mxGeometry x="170" y="210" width="120" height="60" as="geometry" />
        </mxCell>
        <mxCell id="VBcczgVhfxddpKw8UlaK-6" value="Login" style="text;html=1;strokeColor=none;fillColor=none;align=center;verticalAlign=middle;whiteSpace=wrap;rounded=0;" parent="1" vertex="1">
          <mxGeometry x="200" y="225" width="60" height="30" as="geometry" />
        </mxCell>
        <mxCell id="VBcczgVhfxddpKw8UlaK-7" value="" style="rounded=0;whiteSpace=wrap;html=1;" parent="1" vertex="1">
          <mxGeometry x="580" y="210" width="120" height="60" as="geometry" />
        </mxCell>
        <mxCell id="VBcczgVhfxddpKw8UlaK-8" value="Register" style="text;html=1;strokeColor=none;fillColor=none;align=center;verticalAlign=middle;whiteSpace=wrap;rounded=0;" parent="1" vertex="1">
          <mxGeometry x="610" y="225" width="60" height="30" as="geometry" />
        </mxCell>
        <mxCell id="VBcczgVhfxddpKw8UlaK-9" value="" style="rounded=0;whiteSpace=wrap;html=1;" parent="1" vertex="1">
          <mxGeometry x="580" y="330" width="120" height="60" as="geometry" />
        </mxCell>
        <mxCell id="VBcczgVhfxddpKw8UlaK-10" value="Account Made" style="text;html=1;strokeColor=none;fillColor=none;align=center;verticalAlign=middle;whiteSpace=wrap;rounded=0;" parent="1" vertex="1">
          <mxGeometry x="610" y="345" width="60" height="30" as="geometry" />
        </mxCell>
        <mxCell id="VBcczgVhfxddpKw8UlaK-11" value="" style="endArrow=classic;html=1;rounded=0;entryX=0;entryY=0;entryDx=0;entryDy=0;" parent="1" target="VBcczgVhfxddpKw8UlaK-7" edge="1">
          <mxGeometry width="50" height="50" relative="1" as="geometry">
            <mxPoint x="440" y="130" as="sourcePoint" />
            <mxPoint x="450" y="280" as="targetPoint" />
          </mxGeometry>
        </mxCell>
        <mxCell id="VBcczgVhfxddpKw8UlaK-12" value="" style="endArrow=classic;html=1;rounded=0;entryX=1;entryY=0;entryDx=0;entryDy=0;" parent="1" target="VBcczgVhfxddpKw8UlaK-5" edge="1">
          <mxGeometry width="50" height="50" relative="1" as="geometry">
            <mxPoint x="370" y="130" as="sourcePoint" />
            <mxPoint x="495" y="240" as="targetPoint" />
          </mxGeometry>
        </mxCell>
        <mxCell id="VBcczgVhfxddpKw8UlaK-13" value="" style="endArrow=classic;html=1;rounded=0;exitX=0.425;exitY=1.05;exitDx=0;exitDy=0;exitPerimeter=0;entryX=0.5;entryY=0;entryDx=0;entryDy=0;" parent="1" source="VBcczgVhfxddpKw8UlaK-7" target="VBcczgVhfxddpKw8UlaK-9" edge="1">
          <mxGeometry width="50" height="50" relative="1" as="geometry">
            <mxPoint x="400" y="330" as="sourcePoint" />
            <mxPoint x="450" y="280" as="targetPoint" />
          </mxGeometry>
        </mxCell>
        <mxCell id="VBcczgVhfxddpKw8UlaK-14" value="Enter info" style="text;html=1;strokeColor=none;fillColor=none;align=center;verticalAlign=middle;whiteSpace=wrap;rounded=0;" parent="1" vertex="1">
          <mxGeometry x="640" y="290" width="60" height="30" as="geometry" />
        </mxCell>
        <mxCell id="VBcczgVhfxddpKw8UlaK-15" value="" style="endArrow=classic;html=1;rounded=0;exitX=0;exitY=0.5;exitDx=0;exitDy=0;entryX=1;entryY=0.5;entryDx=0;entryDy=0;" parent="1" source="VBcczgVhfxddpKw8UlaK-9" target="VBcczgVhfxddpKw8UlaK-5" edge="1">
          <mxGeometry width="50" height="50" relative="1" as="geometry">
            <mxPoint x="400" y="330" as="sourcePoint" />
            <mxPoint x="450" y="280" as="targetPoint" />
          </mxGeometry>
        </mxCell>
        <mxCell id="VBcczgVhfxddpKw8UlaK-16" value="" style="endArrow=none;html=1;rounded=0;" parent="1" edge="1">
          <mxGeometry relative="1" as="geometry">
            <mxPoint x="-80" y="420" as="sourcePoint" />
            <mxPoint x="440" y="420" as="targetPoint" />
          </mxGeometry>
        </mxCell>
        <mxCell id="VBcczgVhfxddpKw8UlaK-17" value="" style="endArrow=classic;html=1;rounded=0;exitX=0.417;exitY=1.017;exitDx=0;exitDy=0;exitPerimeter=0;" parent="1" source="VBcczgVhfxddpKw8UlaK-5" edge="1">
          <mxGeometry width="50" height="50" relative="1" as="geometry">
            <mxPoint x="400" y="330" as="sourcePoint" />
            <mxPoint x="220" y="420" as="targetPoint" />
          </mxGeometry>
        </mxCell>
        <mxCell id="VBcczgVhfxddpKw8UlaK-18" value="" style="endArrow=classic;html=1;rounded=0;entryX=0;entryY=0.5;entryDx=0;entryDy=0;" parent="1" target="VBcczgVhfxddpKw8UlaK-5" edge="1">
          <mxGeometry width="50" height="50" relative="1" as="geometry">
            <mxPoint x="150" y="420" as="sourcePoint" />
            <mxPoint x="450" y="280" as="targetPoint" />
            <Array as="points">
              <mxPoint x="80" y="280" />
            </Array>
          </mxGeometry>
        </mxCell>
        <mxCell id="VBcczgVhfxddpKw8UlaK-19" value="Invalid info" style="text;html=1;strokeColor=none;fillColor=none;align=center;verticalAlign=middle;whiteSpace=wrap;rounded=0;" parent="1" vertex="1">
          <mxGeometry x="50" y="225" width="60" height="30" as="geometry" />
        </mxCell>
        <mxCell id="VBcczgVhfxddpKw8UlaK-20" value="" style="endArrow=classic;html=1;rounded=0;" parent="1" edge="1">
          <mxGeometry width="50" height="50" relative="1" as="geometry">
            <mxPoint x="170" y="420" as="sourcePoint" />
            <mxPoint x="-30" y="510" as="targetPoint" />
          </mxGeometry>
        </mxCell>
        <mxCell id="VBcczgVhfxddpKw8UlaK-21" value="" style="rounded=0;whiteSpace=wrap;html=1;" parent="1" vertex="1">
          <mxGeometry x="-180" y="555" width="120" height="60" as="geometry" />
        </mxCell>
        <mxCell id="VBcczgVhfxddpKw8UlaK-22" value="Browse Flights" style="text;html=1;strokeColor=none;fillColor=none;align=center;verticalAlign=middle;whiteSpace=wrap;rounded=0;" parent="1" vertex="1">
          <mxGeometry x="-150" y="570" width="60" height="30" as="geometry" />
        </mxCell>
        <mxCell id="VBcczgVhfxddpKw8UlaK-23" value="" style="rounded=0;whiteSpace=wrap;html=1;" parent="1" vertex="1">
          <mxGeometry x="200" y="670" width="120" height="60" as="geometry" />
        </mxCell>
        <mxCell id="VBcczgVhfxddpKw8UlaK-24" value="Setup Flights" style="text;html=1;strokeColor=none;fillColor=none;align=center;verticalAlign=middle;whiteSpace=wrap;rounded=0;" parent="1" vertex="1">
          <mxGeometry x="230" y="685" width="60" height="30" as="geometry" />
        </mxCell>
        <mxCell id="VBcczgVhfxddpKw8UlaK-25" value="" style="rounded=0;whiteSpace=wrap;html=1;" parent="1" vertex="1">
          <mxGeometry x="900" y="670" width="120" height="60" as="geometry" />
        </mxCell>
        <mxCell id="VBcczgVhfxddpKw8UlaK-26" value="Modify Flights" style="text;html=1;strokeColor=none;fillColor=none;align=center;verticalAlign=middle;whiteSpace=wrap;rounded=0;" parent="1" vertex="1">
          <mxGeometry x="930" y="685" width="60" height="30" as="geometry" />
        </mxCell>
        <mxCell id="VBcczgVhfxddpKw8UlaK-34" value="" style="rounded=0;whiteSpace=wrap;html=1;" parent="1" vertex="1">
          <mxGeometry x="390" y="670" width="120" height="60" as="geometry" />
        </mxCell>
        <mxCell id="VBcczgVhfxddpKw8UlaK-35" value="View Flights" style="text;html=1;strokeColor=none;fillColor=none;align=center;verticalAlign=middle;whiteSpace=wrap;rounded=0;" parent="1" vertex="1">
          <mxGeometry x="420" y="685" width="60" height="30" as="geometry" />
        </mxCell>
        <mxCell id="VBcczgVhfxddpKw8UlaK-36" value="" style="rounded=0;whiteSpace=wrap;html=1;" parent="1" vertex="1">
          <mxGeometry x="560" y="670" width="120" height="60" as="geometry" />
        </mxCell>
        <mxCell id="VBcczgVhfxddpKw8UlaK-37" value="View Passengers" style="text;html=1;strokeColor=none;fillColor=none;align=center;verticalAlign=middle;whiteSpace=wrap;rounded=0;" parent="1" vertex="1">
          <mxGeometry x="590" y="685" width="60" height="30" as="geometry" />
        </mxCell>
        <mxCell id="VBcczgVhfxddpKw8UlaK-43" value="Admin login" style="text;html=1;strokeColor=none;fillColor=none;align=center;verticalAlign=middle;whiteSpace=wrap;rounded=0;" parent="1" vertex="1">
          <mxGeometry x="425" y="470" width="60" height="30" as="geometry" />
        </mxCell>
        <mxCell id="VBcczgVhfxddpKw8UlaK-44" value="" style="endArrow=classic;html=1;rounded=0;" parent="1" edge="1">
          <mxGeometry width="50" height="50" relative="1" as="geometry">
            <mxPoint x="320" y="420" as="sourcePoint" />
            <mxPoint x="480" y="560" as="targetPoint" />
          </mxGeometry>
        </mxCell>
        <mxCell id="VBcczgVhfxddpKw8UlaK-45" value="" style="endArrow=none;html=1;rounded=0;" parent="1" edge="1">
          <mxGeometry relative="1" as="geometry">
            <mxPoint x="180" y="560" as="sourcePoint" />
            <mxPoint x="900" y="560" as="targetPoint" />
          </mxGeometry>
        </mxCell>
        <mxCell id="VBcczgVhfxddpKw8UlaK-46" value="User login" style="text;html=1;strokeColor=none;fillColor=none;align=center;verticalAlign=middle;whiteSpace=wrap;rounded=0;" parent="1" vertex="1">
          <mxGeometry x="40" y="470" width="60" height="30" as="geometry" />
        </mxCell>
        <mxCell id="VBcczgVhfxddpKw8UlaK-47" value="" style="endArrow=classic;html=1;rounded=0;entryX=0.25;entryY=0;entryDx=0;entryDy=0;" parent="1" target="VBcczgVhfxddpKw8UlaK-23" edge="1">
          <mxGeometry width="50" height="50" relative="1" as="geometry">
            <mxPoint x="240" y="560" as="sourcePoint" />
            <mxPoint x="450" y="580" as="targetPoint" />
          </mxGeometry>
        </mxCell>
        <mxCell id="VBcczgVhfxddpKw8UlaK-49" value="" style="endArrow=classic;html=1;rounded=0;entryX=0.25;entryY=0;entryDx=0;entryDy=0;" parent="1" target="VBcczgVhfxddpKw8UlaK-34" edge="1">
          <mxGeometry width="50" height="50" relative="1" as="geometry">
            <mxPoint x="420" y="560" as="sourcePoint" />
            <mxPoint x="260" y="580" as="targetPoint" />
          </mxGeometry>
        </mxCell>
        <mxCell id="VBcczgVhfxddpKw8UlaK-50" value="" style="endArrow=classic;html=1;rounded=0;entryX=0.25;entryY=0;entryDx=0;entryDy=0;" parent="1" target="VBcczgVhfxddpKw8UlaK-36" edge="1">
          <mxGeometry width="50" height="50" relative="1" as="geometry">
            <mxPoint x="590" y="560" as="sourcePoint" />
            <mxPoint x="260" y="580" as="targetPoint" />
          </mxGeometry>
        </mxCell>
        <mxCell id="VBcczgVhfxddpKw8UlaK-51" value="" style="rounded=0;whiteSpace=wrap;html=1;" parent="1" vertex="1">
          <mxGeometry x="-300" y="685" width="120" height="60" as="geometry" />
        </mxCell>
        <mxCell id="VBcczgVhfxddpKw8UlaK-52" value="Select origin and destination" style="text;html=1;strokeColor=none;fillColor=none;align=center;verticalAlign=middle;whiteSpace=wrap;rounded=0;" parent="1" vertex="1">
          <mxGeometry x="-270" y="700" width="60" height="30" as="geometry" />
        </mxCell>
        <mxCell id="VBcczgVhfxddpKw8UlaK-53" value="" style="endArrow=classic;html=1;rounded=0;exitX=0;exitY=1;exitDx=0;exitDy=0;entryX=0.75;entryY=0;entryDx=0;entryDy=0;" parent="1" source="VBcczgVhfxddpKw8UlaK-21" target="VBcczgVhfxddpKw8UlaK-51" edge="1">
          <mxGeometry width="50" height="50" relative="1" as="geometry">
            <mxPoint x="240" y="645" as="sourcePoint" />
            <mxPoint x="290" y="595" as="targetPoint" />
          </mxGeometry>
        </mxCell>
        <mxCell id="VBcczgVhfxddpKw8UlaK-54" value="" style="rounded=0;whiteSpace=wrap;html=1;" parent="1" vertex="1">
          <mxGeometry x="-300" y="815" width="120" height="60" as="geometry" />
        </mxCell>
        <mxCell id="VBcczgVhfxddpKw8UlaK-55" value="Select Flight" style="text;html=1;strokeColor=none;fillColor=none;align=center;verticalAlign=middle;whiteSpace=wrap;rounded=0;" parent="1" vertex="1">
          <mxGeometry x="-270" y="830" width="60" height="30" as="geometry" />
        </mxCell>
        <mxCell id="VBcczgVhfxddpKw8UlaK-56" value="" style="rounded=0;whiteSpace=wrap;html=1;" parent="1" vertex="1">
          <mxGeometry x="-300" y="935" width="120" height="60" as="geometry" />
        </mxCell>
        <mxCell id="VBcczgVhfxddpKw8UlaK-57" value="Select Seat" style="text;html=1;strokeColor=none;fillColor=none;align=center;verticalAlign=middle;whiteSpace=wrap;rounded=0;" parent="1" vertex="1">
          <mxGeometry x="-270" y="950" width="60" height="30" as="geometry" />
        </mxCell>
        <mxCell id="VBcczgVhfxddpKw8UlaK-58" value="" style="rounded=0;whiteSpace=wrap;html=1;" parent="1" vertex="1">
          <mxGeometry x="-300" y="1045" width="120" height="60" as="geometry" />
        </mxCell>
        <mxCell id="VBcczgVhfxddpKw8UlaK-59" value="Make Payment" style="text;html=1;strokeColor=none;fillColor=none;align=center;verticalAlign=middle;whiteSpace=wrap;rounded=0;" parent="1" vertex="1">
          <mxGeometry x="-270" y="1060" width="60" height="30" as="geometry" />
        </mxCell>
        <mxCell id="VBcczgVhfxddpKw8UlaK-60" value="" style="rounded=0;whiteSpace=wrap;html=1;" parent="1" vertex="1">
          <mxGeometry x="200" y="770" width="120" height="60" as="geometry" />
        </mxCell>
        <mxCell id="VBcczgVhfxddpKw8UlaK-61" value="Select origin and destination" style="text;html=1;strokeColor=none;fillColor=none;align=center;verticalAlign=middle;whiteSpace=wrap;rounded=0;" parent="1" vertex="1">
          <mxGeometry x="230" y="785" width="60" height="30" as="geometry" />
        </mxCell>
        <mxCell id="VBcczgVhfxddpKw8UlaK-62" value="" style="rounded=0;whiteSpace=wrap;html=1;" parent="1" vertex="1">
          <mxGeometry x="200" y="880" width="120" height="60" as="geometry" />
        </mxCell>
        <mxCell id="VBcczgVhfxddpKw8UlaK-63" value="Select seats avaliable" style="text;html=1;strokeColor=none;fillColor=none;align=center;verticalAlign=middle;whiteSpace=wrap;rounded=0;" parent="1" vertex="1">
          <mxGeometry x="230" y="895" width="60" height="30" as="geometry" />
        </mxCell>
        <mxCell id="VBcczgVhfxddpKw8UlaK-64" value="" style="rounded=0;whiteSpace=wrap;html=1;" parent="1" vertex="1">
          <mxGeometry x="200" y="990" width="120" height="60" as="geometry" />
        </mxCell>
        <mxCell id="VBcczgVhfxddpKw8UlaK-65" value="Select Price" style="text;html=1;strokeColor=none;fillColor=none;align=center;verticalAlign=middle;whiteSpace=wrap;rounded=0;" parent="1" vertex="1">
          <mxGeometry x="230" y="1005" width="60" height="30" as="geometry" />
        </mxCell>
        <mxCell id="VBcczgVhfxddpKw8UlaK-66" value="" style="rounded=0;whiteSpace=wrap;html=1;" parent="1" vertex="1">
          <mxGeometry x="200" y="1090" width="120" height="60" as="geometry" />
        </mxCell>
        <mxCell id="VBcczgVhfxddpKw8UlaK-67" value="Select Aircraft" style="text;html=1;strokeColor=none;fillColor=none;align=center;verticalAlign=middle;whiteSpace=wrap;rounded=0;" parent="1" vertex="1">
          <mxGeometry x="230" y="1105" width="60" height="30" as="geometry" />
        </mxCell>
        <mxCell id="VBcczgVhfxddpKw8UlaK-68" value="" style="rounded=0;whiteSpace=wrap;html=1;" parent="1" vertex="1">
          <mxGeometry x="200" y="1190" width="120" height="60" as="geometry" />
        </mxCell>
        <mxCell id="VBcczgVhfxddpKw8UlaK-69" value="Select Crew" style="text;html=1;strokeColor=none;fillColor=none;align=center;verticalAlign=middle;whiteSpace=wrap;rounded=0;" parent="1" vertex="1">
          <mxGeometry x="230" y="1205" width="60" height="30" as="geometry" />
        </mxCell>
        <mxCell id="VBcczgVhfxddpKw8UlaK-76" value="" style="rounded=0;whiteSpace=wrap;html=1;" parent="1" vertex="1">
          <mxGeometry x="400" y="990" width="120" height="60" as="geometry" />
        </mxCell>
        <mxCell id="VBcczgVhfxddpKw8UlaK-77" value="displays flights" style="text;html=1;strokeColor=none;fillColor=none;align=center;verticalAlign=middle;whiteSpace=wrap;rounded=0;" parent="1" vertex="1">
          <mxGeometry x="430" y="1005" width="60" height="30" as="geometry" />
        </mxCell>
        <mxCell id="VBcczgVhfxddpKw8UlaK-84" value="" style="rounded=0;whiteSpace=wrap;html=1;" parent="1" vertex="1">
          <mxGeometry x="560" y="990" width="120" height="60" as="geometry" />
        </mxCell>
        <mxCell id="VBcczgVhfxddpKw8UlaK-85" value="Displays Passengers" style="text;html=1;strokeColor=none;fillColor=none;align=center;verticalAlign=middle;whiteSpace=wrap;rounded=0;" parent="1" vertex="1">
          <mxGeometry x="590" y="1005" width="60" height="30" as="geometry" />
        </mxCell>
        <mxCell id="VBcczgVhfxddpKw8UlaK-86" value="" style="rounded=0;whiteSpace=wrap;html=1;" parent="1" vertex="1">
          <mxGeometry x="730" y="920" width="120" height="60" as="geometry" />
        </mxCell>
        <mxCell id="VBcczgVhfxddpKw8UlaK-87" value="Modify origin/destination" style="text;html=1;strokeColor=none;fillColor=none;align=center;verticalAlign=middle;whiteSpace=wrap;rounded=0;" parent="1" vertex="1">
          <mxGeometry x="760" y="935" width="60" height="30" as="geometry" />
        </mxCell>
        <mxCell id="VBcczgVhfxddpKw8UlaK-88" value="" style="rounded=0;whiteSpace=wrap;html=1;" parent="1" vertex="1">
          <mxGeometry x="870" y="920" width="120" height="60" as="geometry" />
        </mxCell>
        <mxCell id="VBcczgVhfxddpKw8UlaK-89" value="Modify Price" style="text;html=1;strokeColor=none;fillColor=none;align=center;verticalAlign=middle;whiteSpace=wrap;rounded=0;" parent="1" vertex="1">
          <mxGeometry x="900" y="935" width="60" height="30" as="geometry" />
        </mxCell>
        <mxCell id="VBcczgVhfxddpKw8UlaK-90" value="" style="rounded=0;whiteSpace=wrap;html=1;" parent="1" vertex="1">
          <mxGeometry x="1040" y="920" width="120" height="60" as="geometry" />
        </mxCell>
        <mxCell id="VBcczgVhfxddpKw8UlaK-91" value="Modify Crew" style="text;html=1;strokeColor=none;fillColor=none;align=center;verticalAlign=middle;whiteSpace=wrap;rounded=0;" parent="1" vertex="1">
          <mxGeometry x="1070" y="935" width="60" height="30" as="geometry" />
        </mxCell>
        <mxCell id="VBcczgVhfxddpKw8UlaK-92" value="" style="rounded=0;whiteSpace=wrap;html=1;" parent="1" vertex="1">
          <mxGeometry x="1200" y="920" width="120" height="60" as="geometry" />
        </mxCell>
        <mxCell id="VBcczgVhfxddpKw8UlaK-93" value="Modify Aircraft" style="text;html=1;strokeColor=none;fillColor=none;align=center;verticalAlign=middle;whiteSpace=wrap;rounded=0;" parent="1" vertex="1">
          <mxGeometry x="1230" y="935" width="60" height="30" as="geometry" />
        </mxCell>
        <mxCell id="VBcczgVhfxddpKw8UlaK-94" value="" style="rounded=0;whiteSpace=wrap;html=1;" parent="1" vertex="1">
          <mxGeometry x="1200" y="1025" width="120" height="60" as="geometry" />
        </mxCell>
        <mxCell id="VBcczgVhfxddpKw8UlaK-95" value="Modify Seat Count" style="text;html=1;strokeColor=none;fillColor=none;align=center;verticalAlign=middle;whiteSpace=wrap;rounded=0;" parent="1" vertex="1">
          <mxGeometry x="1230" y="1040" width="60" height="30" as="geometry" />
        </mxCell>
        <mxCell id="VBcczgVhfxddpKw8UlaK-96" value="" style="endArrow=classic;html=1;rounded=0;entryX=0;entryY=0;entryDx=0;entryDy=0;" parent="1" target="VBcczgVhfxddpKw8UlaK-25" edge="1">
          <mxGeometry width="50" height="50" relative="1" as="geometry">
            <mxPoint x="890" y="560" as="sourcePoint" />
            <mxPoint x="890" y="670" as="targetPoint" />
          </mxGeometry>
        </mxCell>
        <mxCell id="VBcczgVhfxddpKw8UlaK-98" value="" style="rounded=0;whiteSpace=wrap;html=1;" parent="1" vertex="1">
          <mxGeometry x="-440" y="640" width="120" height="60" as="geometry" />
        </mxCell>
        <mxCell id="VBcczgVhfxddpKw8UlaK-99" value="View Passengers" style="text;html=1;strokeColor=none;fillColor=none;align=center;verticalAlign=middle;whiteSpace=wrap;rounded=0;" parent="1" vertex="1">
          <mxGeometry x="-410" y="655" width="60" height="30" as="geometry" />
        </mxCell>
        <mxCell id="VBcczgVhfxddpKw8UlaK-100" value="" style="endArrow=classic;html=1;rounded=0;entryX=1;entryY=0;entryDx=0;entryDy=0;" parent="1" target="VBcczgVhfxddpKw8UlaK-98" edge="1">
          <mxGeometry width="50" height="50" relative="1" as="geometry">
            <mxPoint x="-60" y="420" as="sourcePoint" />
            <mxPoint x="-110" y="460" as="targetPoint" />
          </mxGeometry>
        </mxCell>
        <mxCell id="VBcczgVhfxddpKw8UlaK-101" value="" style="rounded=0;whiteSpace=wrap;html=1;" parent="1" vertex="1">
          <mxGeometry x="-440" y="1105" width="120" height="60" as="geometry" />
        </mxCell>
        <mxCell id="VBcczgVhfxddpKw8UlaK-102" value="Display Passengers" style="text;html=1;strokeColor=none;fillColor=none;align=center;verticalAlign=middle;whiteSpace=wrap;rounded=0;" parent="1" vertex="1">
          <mxGeometry x="-410" y="1120" width="60" height="30" as="geometry" />
        </mxCell>
        <mxCell id="VBcczgVhfxddpKw8UlaK-103" value="" style="endArrow=classic;html=1;rounded=0;exitX=0.5;exitY=1;exitDx=0;exitDy=0;entryX=0.5;entryY=0;entryDx=0;entryDy=0;" parent="1" source="VBcczgVhfxddpKw8UlaK-98" target="VBcczgVhfxddpKw8UlaK-101" edge="1">
          <mxGeometry width="50" height="50" relative="1" as="geometry">
            <mxPoint x="-190" y="780" as="sourcePoint" />
            <mxPoint x="-140" y="730" as="targetPoint" />
          </mxGeometry>
        </mxCell>
        <mxCell id="VBcczgVhfxddpKw8UlaK-105" value="Employee Login" style="text;html=1;strokeColor=none;fillColor=none;align=center;verticalAlign=middle;whiteSpace=wrap;rounded=0;" parent="1" vertex="1">
          <mxGeometry x="-200" y="430" width="60" height="30" as="geometry" />
        </mxCell>
        <mxCell id="VBcczgVhfxddpKw8UlaK-106" value="" style="endArrow=classic;html=1;rounded=0;exitX=0.5;exitY=1;exitDx=0;exitDy=0;entryX=0.5;entryY=0;entryDx=0;entryDy=0;" parent="1" source="VBcczgVhfxddpKw8UlaK-23" target="VBcczgVhfxddpKw8UlaK-60" edge="1">
          <mxGeometry width="50" height="50" relative="1" as="geometry">
            <mxPoint x="440" y="890" as="sourcePoint" />
            <mxPoint x="490" y="840" as="targetPoint" />
          </mxGeometry>
        </mxCell>
        <mxCell id="VBcczgVhfxddpKw8UlaK-107" value="" style="endArrow=classic;html=1;rounded=0;exitX=0.5;exitY=1;exitDx=0;exitDy=0;entryX=0.5;entryY=0;entryDx=0;entryDy=0;" parent="1" source="VBcczgVhfxddpKw8UlaK-60" target="VBcczgVhfxddpKw8UlaK-62" edge="1">
          <mxGeometry width="50" height="50" relative="1" as="geometry">
            <mxPoint x="440" y="890" as="sourcePoint" />
            <mxPoint x="490" y="840" as="targetPoint" />
          </mxGeometry>
        </mxCell>
        <mxCell id="VBcczgVhfxddpKw8UlaK-108" value="" style="endArrow=classic;html=1;rounded=0;exitX=0.5;exitY=1;exitDx=0;exitDy=0;entryX=0.5;entryY=0;entryDx=0;entryDy=0;" parent="1" source="VBcczgVhfxddpKw8UlaK-62" target="VBcczgVhfxddpKw8UlaK-64" edge="1">
          <mxGeometry width="50" height="50" relative="1" as="geometry">
            <mxPoint x="440" y="890" as="sourcePoint" />
            <mxPoint x="490" y="840" as="targetPoint" />
          </mxGeometry>
        </mxCell>
        <mxCell id="VBcczgVhfxddpKw8UlaK-109" value="" style="endArrow=classic;html=1;rounded=0;exitX=0.5;exitY=1;exitDx=0;exitDy=0;entryX=0.5;entryY=0;entryDx=0;entryDy=0;" parent="1" source="VBcczgVhfxddpKw8UlaK-64" target="VBcczgVhfxddpKw8UlaK-66" edge="1">
          <mxGeometry width="50" height="50" relative="1" as="geometry">
            <mxPoint x="440" y="890" as="sourcePoint" />
            <mxPoint x="490" y="840" as="targetPoint" />
          </mxGeometry>
        </mxCell>
        <mxCell id="VBcczgVhfxddpKw8UlaK-110" value="" style="endArrow=classic;html=1;rounded=0;exitX=0.5;exitY=1;exitDx=0;exitDy=0;entryX=0.5;entryY=0;entryDx=0;entryDy=0;" parent="1" source="VBcczgVhfxddpKw8UlaK-66" target="VBcczgVhfxddpKw8UlaK-68" edge="1">
          <mxGeometry width="50" height="50" relative="1" as="geometry">
            <mxPoint x="440" y="890" as="sourcePoint" />
            <mxPoint x="490" y="840" as="targetPoint" />
          </mxGeometry>
        </mxCell>
        <mxCell id="VBcczgVhfxddpKw8UlaK-111" value="" style="endArrow=classic;html=1;rounded=0;exitX=0.5;exitY=1;exitDx=0;exitDy=0;entryX=0.5;entryY=0;entryDx=0;entryDy=0;" parent="1" source="VBcczgVhfxddpKw8UlaK-34" target="VBcczgVhfxddpKw8UlaK-76" edge="1">
          <mxGeometry width="50" height="50" relative="1" as="geometry">
            <mxPoint x="440" y="890" as="sourcePoint" />
            <mxPoint x="490" y="840" as="targetPoint" />
          </mxGeometry>
        </mxCell>
        <mxCell id="VBcczgVhfxddpKw8UlaK-112" value="" style="endArrow=classic;html=1;rounded=0;exitX=0.5;exitY=1;exitDx=0;exitDy=0;entryX=0.5;entryY=0;entryDx=0;entryDy=0;" parent="1" source="VBcczgVhfxddpKw8UlaK-36" target="VBcczgVhfxddpKw8UlaK-84" edge="1">
          <mxGeometry width="50" height="50" relative="1" as="geometry">
            <mxPoint x="440" y="890" as="sourcePoint" />
            <mxPoint x="490" y="840" as="targetPoint" />
          </mxGeometry>
        </mxCell>
        <mxCell id="VBcczgVhfxddpKw8UlaK-113" value="" style="endArrow=classic;html=1;rounded=0;exitX=0;exitY=1;exitDx=0;exitDy=0;entryX=0.5;entryY=0;entryDx=0;entryDy=0;" parent="1" source="VBcczgVhfxddpKw8UlaK-25" target="VBcczgVhfxddpKw8UlaK-86" edge="1">
          <mxGeometry width="50" height="50" relative="1" as="geometry">
            <mxPoint x="1270" y="890" as="sourcePoint" />
            <mxPoint x="1320" y="840" as="targetPoint" />
          </mxGeometry>
        </mxCell>
        <mxCell id="VBcczgVhfxddpKw8UlaK-114" value="" style="endArrow=classic;html=1;rounded=0;exitX=0.25;exitY=1;exitDx=0;exitDy=0;entryX=0.5;entryY=0;entryDx=0;entryDy=0;" parent="1" source="VBcczgVhfxddpKw8UlaK-25" target="VBcczgVhfxddpKw8UlaK-88" edge="1">
          <mxGeometry width="50" height="50" relative="1" as="geometry">
            <mxPoint x="1270" y="890" as="sourcePoint" />
            <mxPoint x="1320" y="840" as="targetPoint" />
          </mxGeometry>
        </mxCell>
        <mxCell id="VBcczgVhfxddpKw8UlaK-116" value="" style="endArrow=classic;html=1;rounded=0;exitX=0.75;exitY=1;exitDx=0;exitDy=0;entryX=0.25;entryY=0;entryDx=0;entryDy=0;" parent="1" source="VBcczgVhfxddpKw8UlaK-25" target="VBcczgVhfxddpKw8UlaK-90" edge="1">
          <mxGeometry width="50" height="50" relative="1" as="geometry">
            <mxPoint x="1270" y="890" as="sourcePoint" />
            <mxPoint x="1320" y="840" as="targetPoint" />
          </mxGeometry>
        </mxCell>
        <mxCell id="VBcczgVhfxddpKw8UlaK-117" value="" style="endArrow=classic;html=1;rounded=0;exitX=1;exitY=1;exitDx=0;exitDy=0;entryX=0;entryY=0;entryDx=0;entryDy=0;" parent="1" source="VBcczgVhfxddpKw8UlaK-25" target="VBcczgVhfxddpKw8UlaK-92" edge="1">
          <mxGeometry width="50" height="50" relative="1" as="geometry">
            <mxPoint x="1270" y="890" as="sourcePoint" />
            <mxPoint x="1320" y="840" as="targetPoint" />
          </mxGeometry>
        </mxCell>
        <mxCell id="VBcczgVhfxddpKw8UlaK-118" value="" style="endArrow=classic;html=1;rounded=0;exitX=0.25;exitY=1;exitDx=0;exitDy=0;entryX=0.25;entryY=0;entryDx=0;entryDy=0;" parent="1" source="VBcczgVhfxddpKw8UlaK-92" target="VBcczgVhfxddpKw8UlaK-94" edge="1">
          <mxGeometry width="50" height="50" relative="1" as="geometry">
            <mxPoint x="1100" y="910" as="sourcePoint" />
            <mxPoint x="1150" y="860" as="targetPoint" />
          </mxGeometry>
        </mxCell>
        <mxCell id="VBcczgVhfxddpKw8UlaK-120" value="" style="endArrow=classic;html=1;rounded=0;exitX=0.5;exitY=1;exitDx=0;exitDy=0;entryX=0.5;entryY=0;entryDx=0;entryDy=0;" parent="1" source="VBcczgVhfxddpKw8UlaK-51" target="VBcczgVhfxddpKw8UlaK-54" edge="1">
          <mxGeometry width="50" height="50" relative="1" as="geometry">
            <mxPoint x="60" y="805" as="sourcePoint" />
            <mxPoint x="110" y="755" as="targetPoint" />
          </mxGeometry>
        </mxCell>
        <mxCell id="VBcczgVhfxddpKw8UlaK-121" value="" style="endArrow=classic;html=1;rounded=0;exitX=0.5;exitY=1;exitDx=0;exitDy=0;entryX=0.5;entryY=0;entryDx=0;entryDy=0;" parent="1" source="VBcczgVhfxddpKw8UlaK-54" target="VBcczgVhfxddpKw8UlaK-56" edge="1">
          <mxGeometry width="50" height="50" relative="1" as="geometry">
            <mxPoint x="-140" y="805" as="sourcePoint" />
            <mxPoint x="-90" y="755" as="targetPoint" />
          </mxGeometry>
        </mxCell>
        <mxCell id="VBcczgVhfxddpKw8UlaK-122" value="" style="endArrow=classic;html=1;rounded=0;exitX=0.5;exitY=1;exitDx=0;exitDy=0;entryX=0.5;entryY=0;entryDx=0;entryDy=0;" parent="1" source="VBcczgVhfxddpKw8UlaK-56" target="VBcczgVhfxddpKw8UlaK-58" edge="1">
          <mxGeometry width="50" height="50" relative="1" as="geometry">
            <mxPoint x="-140" y="805" as="sourcePoint" />
            <mxPoint x="-90" y="755" as="targetPoint" />
          </mxGeometry>
        </mxCell>
        <mxCell id="VBcczgVhfxddpKw8UlaK-123" value="" style="endArrow=none;html=1;rounded=0;" parent="1" edge="1">
          <mxGeometry relative="1" as="geometry">
            <mxPoint x="-110" y="1430" as="sourcePoint" />
            <mxPoint x="990" y="1430" as="targetPoint" />
          </mxGeometry>
        </mxCell>
        <mxCell id="VBcczgVhfxddpKw8UlaK-124" value="" style="endArrow=classic;html=1;rounded=0;exitX=0.75;exitY=1;exitDx=0;exitDy=0;" parent="1" source="VBcczgVhfxddpKw8UlaK-101" edge="1">
          <mxGeometry width="50" height="50" relative="1" as="geometry">
            <mxPoint x="250" y="1090" as="sourcePoint" />
            <mxPoint x="-60" y="1430" as="targetPoint" />
          </mxGeometry>
        </mxCell>
        <mxCell id="VBcczgVhfxddpKw8UlaK-125" value="" style="endArrow=classic;html=1;rounded=0;exitX=0.5;exitY=1;exitDx=0;exitDy=0;" parent="1" edge="1" source="VBcczgVhfxddpKw8UlaK-58">
          <mxGeometry width="50" height="50" relative="1" as="geometry">
            <mxPoint x="-90" y="1090" as="sourcePoint" />
            <mxPoint x="20" y="1430" as="targetPoint" />
          </mxGeometry>
        </mxCell>
        <mxCell id="VBcczgVhfxddpKw8UlaK-126" value="" style="endArrow=classic;html=1;rounded=0;exitX=0.75;exitY=1;exitDx=0;exitDy=0;" parent="1" edge="1">
          <mxGeometry width="50" height="50" relative="1" as="geometry">
            <mxPoint x="260" y="1250" as="sourcePoint" />
            <mxPoint x="260" y="1430" as="targetPoint" />
          </mxGeometry>
        </mxCell>
        <mxCell id="VBcczgVhfxddpKw8UlaK-127" value="" style="endArrow=classic;html=1;rounded=0;exitX=0.75;exitY=1;exitDx=0;exitDy=0;" parent="1" edge="1">
          <mxGeometry width="50" height="50" relative="1" as="geometry">
            <mxPoint x="449.5" y="1050" as="sourcePoint" />
            <mxPoint x="410" y="1430" as="targetPoint" />
          </mxGeometry>
        </mxCell>
        <mxCell id="VBcczgVhfxddpKw8UlaK-128" value="" style="endArrow=classic;html=1;rounded=0;exitX=0.5;exitY=1;exitDx=0;exitDy=0;" parent="1" source="VBcczgVhfxddpKw8UlaK-84" edge="1">
          <mxGeometry width="50" height="50" relative="1" as="geometry">
            <mxPoint x="810" y="1190" as="sourcePoint" />
            <mxPoint x="600" y="1430" as="targetPoint" />
          </mxGeometry>
        </mxCell>
        <mxCell id="VBcczgVhfxddpKw8UlaK-129" value="" style="endArrow=classic;html=1;rounded=0;exitX=0.25;exitY=1;exitDx=0;exitDy=0;" parent="1" source="VBcczgVhfxddpKw8UlaK-86" edge="1">
          <mxGeometry width="50" height="50" relative="1" as="geometry">
            <mxPoint x="1250" y="1190" as="sourcePoint" />
            <mxPoint x="690" y="1430" as="targetPoint" />
          </mxGeometry>
        </mxCell>
        <mxCell id="VBcczgVhfxddpKw8UlaK-130" value="" style="endArrow=classic;html=1;rounded=0;exitX=0.25;exitY=1;exitDx=0;exitDy=0;" parent="1" source="VBcczgVhfxddpKw8UlaK-88" edge="1">
          <mxGeometry width="50" height="50" relative="1" as="geometry">
            <mxPoint x="1250" y="1190" as="sourcePoint" />
            <mxPoint x="790" y="1430" as="targetPoint" />
          </mxGeometry>
        </mxCell>
        <mxCell id="VBcczgVhfxddpKw8UlaK-131" value="" style="endArrow=classic;html=1;rounded=0;exitX=0.25;exitY=1;exitDx=0;exitDy=0;" parent="1" source="VBcczgVhfxddpKw8UlaK-90" edge="1">
          <mxGeometry width="50" height="50" relative="1" as="geometry">
            <mxPoint x="1250" y="1190" as="sourcePoint" />
            <mxPoint x="870" y="1430" as="targetPoint" />
          </mxGeometry>
        </mxCell>
        <mxCell id="VBcczgVhfxddpKw8UlaK-132" value="" style="endArrow=classic;html=1;rounded=0;exitX=0.192;exitY=1.033;exitDx=0;exitDy=0;exitPerimeter=0;" parent="1" source="VBcczgVhfxddpKw8UlaK-94" edge="1">
          <mxGeometry width="50" height="50" relative="1" as="geometry">
            <mxPoint x="1250" y="1190" as="sourcePoint" />
            <mxPoint x="950" y="1430" as="targetPoint" />
          </mxGeometry>
        </mxCell>
        <mxCell id="VBcczgVhfxddpKw8UlaK-135" value="" style="rounded=0;whiteSpace=wrap;html=1;" parent="1" vertex="1">
          <mxGeometry x="305" y="1500" width="120" height="60" as="geometry" />
        </mxCell>
        <mxCell id="VBcczgVhfxddpKw8UlaK-136" value="Log out" style="text;html=1;strokeColor=none;fillColor=none;align=center;verticalAlign=middle;whiteSpace=wrap;rounded=0;" parent="1" vertex="1">
          <mxGeometry x="335" y="1515" width="60" height="30" as="geometry" />
        </mxCell>
        <mxCell id="VBcczgVhfxddpKw8UlaK-137" value="" style="endArrow=classic;html=1;rounded=0;" parent="1" edge="1">
          <mxGeometry width="50" height="50" relative="1" as="geometry">
            <mxPoint x="360" y="1430" as="sourcePoint" />
            <mxPoint x="360" y="1500" as="targetPoint" />
          </mxGeometry>
        </mxCell>
        <mxCell id="VBcczgVhfxddpKw8UlaK-138" value="" style="strokeWidth=2;html=1;shape=mxgraph.flowchart.start_2;whiteSpace=wrap;fillColor=#1F1F1F;" parent="1" vertex="1">
          <mxGeometry x="355" y="1640" width="20" height="20" as="geometry" />
        </mxCell>
        <mxCell id="VBcczgVhfxddpKw8UlaK-139" value="" style="endArrow=classic;html=1;rounded=0;exitX=0.5;exitY=1;exitDx=0;exitDy=0;entryX=0.5;entryY=0;entryDx=0;entryDy=0;entryPerimeter=0;" parent="1" source="VBcczgVhfxddpKw8UlaK-135" target="VBcczgVhfxddpKw8UlaK-140" edge="1">
          <mxGeometry width="50" height="50" relative="1" as="geometry">
            <mxPoint x="480" y="1350" as="sourcePoint" />
            <mxPoint x="360" y="1600" as="targetPoint" />
          </mxGeometry>
        </mxCell>
        <mxCell id="rWIbXRL2_lPSrgCMzj2v-1" value="" style="endArrow=none;html=1;rounded=0;" edge="1" parent="1">
          <mxGeometry relative="1" as="geometry">
            <mxPoint x="-110" y="510" as="sourcePoint" />
            <mxPoint x="110" y="510" as="targetPoint" />
          </mxGeometry>
        </mxCell>
        <mxCell id="rWIbXRL2_lPSrgCMzj2v-2" value="" style="endArrow=classic;html=1;rounded=0;entryX=0.75;entryY=0;entryDx=0;entryDy=0;" edge="1" parent="1" target="VBcczgVhfxddpKw8UlaK-21">
          <mxGeometry width="50" height="50" relative="1" as="geometry">
            <mxPoint x="-90" y="510" as="sourcePoint" />
            <mxPoint x="20" y="480" as="targetPoint" />
          </mxGeometry>
        </mxCell>
        <mxCell id="rWIbXRL2_lPSrgCMzj2v-4" value="" style="rounded=0;whiteSpace=wrap;html=1;" vertex="1" parent="1">
          <mxGeometry y="550" width="120" height="60" as="geometry" />
        </mxCell>
        <mxCell id="rWIbXRL2_lPSrgCMzj2v-5" value="Cancel Flight" style="text;html=1;strokeColor=none;fillColor=none;align=center;verticalAlign=middle;whiteSpace=wrap;rounded=0;" vertex="1" parent="1">
          <mxGeometry x="30" y="565" width="60" height="30" as="geometry" />
        </mxCell>
        <mxCell id="rWIbXRL2_lPSrgCMzj2v-6" value="" style="rounded=0;whiteSpace=wrap;html=1;" vertex="1" parent="1">
          <mxGeometry y="665" width="120" height="60" as="geometry" />
        </mxCell>
        <mxCell id="rWIbXRL2_lPSrgCMzj2v-7" value="Check insurance" style="text;html=1;strokeColor=none;fillColor=none;align=center;verticalAlign=middle;whiteSpace=wrap;rounded=0;" vertex="1" parent="1">
          <mxGeometry x="30" y="680" width="60" height="30" as="geometry" />
        </mxCell>
        <mxCell id="rWIbXRL2_lPSrgCMzj2v-10" value="" style="rounded=0;whiteSpace=wrap;html=1;" vertex="1" parent="1">
          <mxGeometry x="-130" y="800" width="120" height="60" as="geometry" />
        </mxCell>
        <mxCell id="rWIbXRL2_lPSrgCMzj2v-11" value="Cancelation&amp;nbsp;&lt;br&gt;success" style="text;html=1;strokeColor=none;fillColor=none;align=center;verticalAlign=middle;whiteSpace=wrap;rounded=0;" vertex="1" parent="1">
          <mxGeometry x="-100" y="815" width="60" height="30" as="geometry" />
        </mxCell>
        <mxCell id="rWIbXRL2_lPSrgCMzj2v-12" value="" style="rounded=0;whiteSpace=wrap;html=1;" vertex="1" parent="1">
          <mxGeometry x="40" y="800" width="120" height="60" as="geometry" />
        </mxCell>
        <mxCell id="rWIbXRL2_lPSrgCMzj2v-13" value="Cancelation&amp;nbsp;&lt;br&gt;Failed" style="text;html=1;strokeColor=none;fillColor=none;align=center;verticalAlign=middle;whiteSpace=wrap;rounded=0;" vertex="1" parent="1">
          <mxGeometry x="70" y="815" width="60" height="30" as="geometry" />
        </mxCell>
        <mxCell id="rWIbXRL2_lPSrgCMzj2v-14" value="" style="endArrow=classic;html=1;rounded=0;entryX=0.5;entryY=0;entryDx=0;entryDy=0;" edge="1" parent="1" target="rWIbXRL2_lPSrgCMzj2v-4">
          <mxGeometry width="50" height="50" relative="1" as="geometry">
            <mxPoint x="50" y="510" as="sourcePoint" />
            <mxPoint x="20" y="620" as="targetPoint" />
          </mxGeometry>
        </mxCell>
        <mxCell id="rWIbXRL2_lPSrgCMzj2v-15" value="" style="endArrow=classic;html=1;rounded=0;entryX=0.5;entryY=0;entryDx=0;entryDy=0;exitX=0.5;exitY=1;exitDx=0;exitDy=0;" edge="1" parent="1" source="rWIbXRL2_lPSrgCMzj2v-4" target="rWIbXRL2_lPSrgCMzj2v-6">
          <mxGeometry width="50" height="50" relative="1" as="geometry">
            <mxPoint x="-30" y="670" as="sourcePoint" />
            <mxPoint x="20" y="620" as="targetPoint" />
          </mxGeometry>
        </mxCell>
        <mxCell id="rWIbXRL2_lPSrgCMzj2v-16" value="" style="endArrow=classic;html=1;rounded=0;entryX=0.75;entryY=0;entryDx=0;entryDy=0;exitX=0;exitY=1;exitDx=0;exitDy=0;" edge="1" parent="1" source="rWIbXRL2_lPSrgCMzj2v-6" target="rWIbXRL2_lPSrgCMzj2v-10">
          <mxGeometry width="50" height="50" relative="1" as="geometry">
            <mxPoint x="-30" y="670" as="sourcePoint" />
            <mxPoint x="20" y="620" as="targetPoint" />
          </mxGeometry>
        </mxCell>
        <mxCell id="rWIbXRL2_lPSrgCMzj2v-17" value="" style="endArrow=classic;html=1;rounded=0;exitX=0.75;exitY=1;exitDx=0;exitDy=0;entryX=0.5;entryY=0;entryDx=0;entryDy=0;" edge="1" parent="1" source="rWIbXRL2_lPSrgCMzj2v-6" target="rWIbXRL2_lPSrgCMzj2v-12">
          <mxGeometry width="50" height="50" relative="1" as="geometry">
            <mxPoint x="-30" y="670" as="sourcePoint" />
            <mxPoint x="20" y="620" as="targetPoint" />
          </mxGeometry>
        </mxCell>
        <mxCell id="rWIbXRL2_lPSrgCMzj2v-18" value="" style="endArrow=classic;html=1;rounded=0;exitX=0.5;exitY=1;exitDx=0;exitDy=0;" edge="1" parent="1" source="rWIbXRL2_lPSrgCMzj2v-10">
          <mxGeometry width="50" height="50" relative="1" as="geometry">
            <mxPoint x="-30" y="1170" as="sourcePoint" />
            <mxPoint x="60" y="1431.4285714285713" as="targetPoint" />
          </mxGeometry>
        </mxCell>
        <mxCell id="rWIbXRL2_lPSrgCMzj2v-19" value="" style="endArrow=classic;html=1;rounded=0;exitX=0.5;exitY=1;exitDx=0;exitDy=0;" edge="1" parent="1" source="rWIbXRL2_lPSrgCMzj2v-12">
          <mxGeometry width="50" height="50" relative="1" as="geometry">
            <mxPoint x="-30" y="1070" as="sourcePoint" />
            <mxPoint x="110" y="1430" as="targetPoint" />
          </mxGeometry>
        </mxCell>
      </root>
    </mxGraphModel>
  </diagram>
</mxfile>
